<?xml version="1.0" encoding="utf-8"?>
<svg version="1.1" id="Layer_1" xmlns="http://www.w3.org/2000/svg" x="0px" y="0px" width="100%" viewBox="0 0 600 600" enable-background="new 0 0 600 600" xmlns:bx="https://boxy-svg.com">
  <path fill="#FBFBFB" opacity="1.000000" stroke="none" d="M 149.596 323.065 C 201.351 291.839 247.606 254.104 290.477 212.107 C 330.272 173.127 366.569 131.087 399.479 86.16 C 415.452 64.357 430.933 42.193 446.66 20.157 C 443.747 29.631 440.942 39.267 437.834 48.806 C 417.645 110.839 390.544 169.719 355.484 224.716 C 341.858 246.085 326.232 266.182 311.301 286.701 C 309.947 288.567 307.135 290.041 304.798 290.418 C 274.317 295.344 244.753 303.764 215.704 313.957 C 177.036 327.526 138.544 341.587 99.968 355.443 C 90.044 359.008 80.128 362.611 70.193 366.146 C 69.049 366.553 67.797 366.629 66.5 366.578 C 95.024 353.806 122.623 339.362 149.596 323.065 Z" style=""/>
  <path fill="#FBFAFB" opacity="1.000000" stroke="none" d="M 440.629 154.992 C 450.809 140.285 460.82 125.827 470.923 111.235 C 465.554 134.446 458.923 157.176 450.876 179.506 C 438.53 213.751 423.667 246.768 404.24 277.655 C 402.071 281.106 400.021 282.19 395.872 281.794 C 373.658 279.679 351.647 281.978 329.764 285.826 C 328.528 286.043 327.292 286.274 324.818 286.725 C 367.874 245.86 406.475 202.569 440.629 154.992 Z" style=""/>
  <path fill="#F7F7F7" opacity="1.000000" stroke="none" d="M 371.253 303.558 C 398.099 301.333 424.497 301.023 450.09 305.402 C 432.05 314.679 413.725 324.111 394.965 333.761 C 387.529 327.875 377.723 327.375 368.001 326.939 C 346.904 325.997 326.021 328.452 305.203 331.469 C 243.915 340.357 183.947 355.323 124.192 371.25 C 110.734 374.839 97.319 378.595 83.869 382.236 C 82.413 382.63 80.89 382.776 79.221 382.375 C 88.665 378.742 98.073 374.999 107.566 371.492 C 157.118 353.18 207.253 336.689 258.55 323.92 C 295.541 314.716 332.855 307.233 371.253 303.558 Z" style=""/>
  <path fill="#F9F9F9" d="M 367.298 358.912 C 374.496 358.912 381.475 358.912 388.817 358.912 C 387.268 369.889 382.059 405.795 381.17 413.078 C 380.966 414.713 381.669 416.459 381.958 418.151 C 383.507 417.703 385.192 417.534 386.565 416.78 C 401.69 408.455 417.645 405.61 434.711 408.853 C 460.947 413.832 476.191 436.368 476.022 461.249 C 475.775 496.015 451.834 525.563 417.849 532.939 C 403.918 535.971 390.045 534.946 376.741 529.373 C 358.102 521.573 348.023 504.001 349.953 481.66 M 405.425 431.075 C 383.085 438.206 368.399 461.877 371.972 484.996 C 374.226 499.563 384.261 509.769 398.777 512.224 C 426.351 516.907 448.65 495.964 453.113 474.715 C 456.382 459.107 453.443 445.093 439.647 435.32 C 429.391 428.061 417.875 427.714 405.425 431.075 Z" style="stroke-width: 1px;"/>
  <path fill="#F9F8F9" d="M 183.43 525.496 C 188.604 489.307 200.071 411.859 200.47 409.489 C 207.677 409.489 214.662 409.489 222.235 409.489 C 220.971 418.465 209.065 495.609 205.415 525.563 C 201.392 558.59 178.815 573.614 150.231 575.919 C 145.896 576.266 141.509 575.97 136.724 575.97 C 137.884 568.923 139.053 561.903 140.231 554.823 C 145.041 554.501 149.681 554.332 154.297 553.848 C 171.21 552.079 181.025 542.297 183.43 525.496 Z" style="stroke-width: 1px;"/>
  <path fill="#F9F9F9" d="M 237.648 531.644 C 238.215 527.52 255.381 409.802 255.526 409.497 C 262.52 409.497 269.532 409.497 277.257 409.497 C 271.345 450.409 265.477 491.036 259.616 531.644 C 252.063 531.644 245.051 531.644 237.648 531.644 Z" style="stroke-width: 1px;"/>
  <path fill="#F9F9F9" d="M 329.917 409.591 C 326.478 433.268 314.731 514.697 312.292 531.644 C 304.865 531.644 297.896 531.644 290.561 531.644 C 296.473 490.873 302.341 450.375 308.246 409.591 C 315.299 409.591 322.26 409.591 329.917 409.591 Z" style="stroke-width: 1px;"/>
  <circle fill="#F7F7F8" cx="214.485" cy="376.866" r="13.72" style="stroke-width: 1px;"/>
  <circle fill="#F8F8F8" cx="268.847" cy="376.866" r="13.72" style="stroke-width: 1px;"/>
  <circle fill="#F7F7F7" cx="322.362" cy="376.866" r="13.72" style="stroke-width: 1px;"/>
  <defs>
    <bx:grid x="-889.645" y="-105.275" width="100" height="100"/>
  </defs>
</svg>