<?xml version="1.0" encoding="utf-8"?>
<svg xmlns="http://www.w3.org/2000/svg" id="Layer_1" x="0" y="0" version="1.1" viewBox="0 0 512 512" xmlns:bx="https://boxy-svg.com">
  <defs>
    <linearGradient id="gradient-1" bx:pinned="true"/>
  </defs>
  <style>.st2{fill:#111}.st3{fill:#bebebe}</style>
  <path d="M 250.851 259.755 Q 250.851 257.294 253.092 255.874 Q 255.484 254.358 258.612 255.274 Q 262.09 256.292 264.294 259.755 Q 266.771 263.646 266.374 268.717 Q 265.93 274.388 262.054 279.159 Q 257.761 284.442 250.851 286.641 Q 243.275 289.053 235.167 286.92 Q 226.359 284.603 219.805 277.679 Q 212.742 270.216 210.522 259.755 Q 208.145 248.555 212.044 237.35 Q 216.195 225.423 226.205 217.067 Q 236.809 208.217 250.851 205.982 Q 265.661 203.625 279.978 209.306 Q 295.021 215.275 305.181 228.388 Q 315.822 242.121 318.067 259.755 Q 320.411 278.171 312.942 295.603 Q 305.162 313.763 288.94 325.727 Q 272.08 338.161 250.851 340.414 Q 228.832 342.75 208.281 333.488 Q 187.005 323.9 173.237 304.565 Q 159.007 284.582 156.749 259.755 Q 154.419 234.133 165.476 210.463 Q 176.87 186.07 199.319 170.499 Q 222.424 154.472 250.851 152.21 Q 280.075 149.884 306.864 162.737 Q 334.375 175.937 351.749 201.501 Q 369.574 227.728 371.839 259.755 Q 374.161 292.581 359.511 322.49 Q 344.507 353.118 315.826 372.295 Q 286.478 391.918 250.851 394.186 Q 214.423 396.506 181.395 380.057 Q 147.648 363.25 126.669 331.452 Q 105.247 298.983 102.976 259.755 Q 100.66 219.725 118.907 183.577 Q 137.517 146.712 172.433 123.93 Q 208.022 100.709 250.851 98.4373 Q 294.483 96.1225 333.75 116.169 Q 373.734 136.581 398.318 174.615 Q 418.988 206.594 424.203 244.589" bx:shape="spiral 250.851 259.755 0 174.014 0 1165 1@f456937e" style="fill: none; stroke-linecap: round; stroke-linejoin: round; stroke-miterlimit: 10; stroke: rgb(255, 0, 0); stroke-width: 37px; transform-origin: 263.883px 246.727px 0px;" transform="matrix(1, -0.000001, 0.000001, 1, 1.782367, 7.239075)"/>
  <path d="M 465.481 256.223 C 465.481 371.891 371.714 465.658 256.046 465.658 C 140.378 465.658 46.611 371.891 46.611 256.223 C 46.611 140.555 140.378 46.788 256.046 46.788 C 371.714 46.788 465.481 140.555 465.481 256.223 Z M 261.3 332 C 261.5 315.6 252.8 300.5 238.7 292.3 C 224.5 284.2 207.1 284.3 193 292.6 L 105.4 344.5 C 101.3 346.9 98.5 350.9 97.6 355.5 C 96.7 360.2 97.8 364.9 100.6 368.7 L 100.6 368.8 C 134.6 413.9 185.4 443.2 241.4 450.1 C 246.1 450.7 250.8 449.2 254.4 446.1 C 258 443 260 438.5 260.1 433.8 Z M 191.8 222.3 C 205.9 230.7 223.4 230.8 237.5 222.6 C 251.6 214.4 260.3 199.2 260.1 182.9 L 259 81.1 C 259 76.4 256.9 71.9 253.4 68.8 C 249.9 65.7 245.2 64.2 240.5 64.8 L 240.4 64.8 C 184.4 71.7 133.6 101 99.6 146.1 C 96.8 149.9 95.7 154.7 96.6 159.3 C 97.5 164 100.3 168 104.4 170.4 Z M 319 216.6 C 304.7 224.6 295.9 239.7 295.9 256 C 295.9 272.3 304.8 287.4 319 295.4 L 407.7 345.4 C 411.8 347.7 416.6 348.1 421.1 346.6 C 425.6 345.1 429.2 341.7 431 337.4 L 431 337.3 C 453 285.3 453 226.7 431 174.7 C 429.2 170.4 425.6 167 421.1 165.5 C 416.6 163.9 411.7 164.4 407.6 166.7 Z" style="stroke: rgb(0, 0, 0); stroke-width: 0px;"/>
</svg>